# xmcd
#
# Track frame offsets:
#	150
#	18692
#	37815
#	57157
#	75997
#	96420
#	118037
#	139490
#	157462
#	174337
#	197355
#	218122
#	234567
#	256085
#
# Disc length: 3639 seconds
#
# Revision: 3
# Processed by: cddbd v1.5.2PL0 Copyright (c) Steve Scherf et al.
# Submitted via: audiograbber 1.83.01
#
DISCID=bc0e350e
DTITLE=Various Artist - Daydreams 2 - CD 1
DYEAR=1991
DGENRE=Pop
TTITLE0=The Rembrandts - Just The Way It Is, Baby
TTITLE1=Jimmy Somerville - To Love Somebody
TTITLE2=Roxette - It Must Have Been Love
TTITLE3=Chris Rea - Heaven
TTITLE4=Celine Dion - Where Does My Heart Beat Now?
TTITLE5=Wilson Phillips - You're In Love
TTITLE6=Phil Collins - One More Night
TTITLE7=Londonbeat - A Better Love
TTITLE8=P.M. Sampson and Double Key - We Love To Love
TTITLE9=Elton John - Sacrifice
TTITLE10=Bette Midler - From A Distance
TTITLE11=Fleetwood Mac - Little Lies
TTITLE12=Kool and The Gang - Cherish
TTITLE13=Stevie B. - Because I Love You (The Postman Song)
EXTD=
EXTT0=
EXTT1=
EXTT2=
EXTT3=
EXTT4=
EXTT5=
EXTT6=
EXTT7=
EXTT8=
EXTT9=
EXTT10=
EXTT11=
EXTT12=
EXTT13=
PLAYORDER=
